<?xml version="1.0" encoding="UTF-8" standalone="no"?>
<!-- Created with Inkscape (http://www.inkscape.org/) -->

<svg
   width="297mm"
   height="210mm"
   viewBox="0 0 297 210"
   version="1.1"
   id="svg5"
   inkscape:version="1.1.1 (3bf5ae0d25, 2021-09-20)"
   sodipodi:docname="HandsUpTTRPGLogo.svg"
   xmlns:inkscape="http://www.inkscape.org/namespaces/inkscape"
   xmlns:sodipodi="http://sodipodi.sourceforge.net/DTD/sodipodi-0.dtd"
   xmlns="http://www.w3.org/2000/svg"
   xmlns:svg="http://www.w3.org/2000/svg">
  <sodipodi:namedview
     id="namedview7"
     pagecolor="#ffffff"
     bordercolor="#666666"
     borderopacity="1.0"
     inkscape:pageshadow="2"
     inkscape:pageopacity="0.0"
     inkscape:pagecheckerboard="0"
     inkscape:document-units="mm"
     showgrid="false"
     inkscape:zoom="0.54929737"
     inkscape:cx="619.88282"
     inkscape:cy="567.0881"
     inkscape:window-width="1812"
     inkscape:window-height="1057"
     inkscape:window-x="100"
     inkscape:window-y="-8"
     inkscape:window-maximized="1"
     inkscape:current-layer="text1978" />
  <defs
     id="defs2" />
  <g
     inkscape:label="Layer 1"
     inkscape:groupmode="layer"
     id="layer1">
    <g
       id="g839"
       transform="matrix(0.26458333,0,0,0.26458333,60.630167,79.022365)"
       inkscape:export-filename="G:\My Drive\Roleplay\Hands Up\HandsUpLogo.png"
       inkscape:export-xdpi="300.01099"
       inkscape:export-ydpi="300.01099">
      <g
         aria-label="HANDS UP!"
         id="text1978"
         style="font-size:268.065px;line-height:1.25;font-family:Arial;-inkscape-font-specification:Arial;writing-mode:tb-rl;stroke-width:6.28278"
         transform="translate(1.8205076,16.384568)"
         inkscape:export-filename="G:\My Drive\Roleplay\Hands Up\text1978.png"
         inkscape:export-xdpi="300.01099"
         inkscape:export-ydpi="300.01099">
        <path
           d="M -108.31131,155.95578 V -31.689722 h 39.941689 v 73.717876 h 14.207445 v -73.717876 h 39.673621 V 155.95578 H -54.162176 V 82.237904 h -14.207445 v 73.717876 z"
           style="fill:#0055d4"
           id="path67244" />
        <path
           d="M -3.7661172,155.95578 19.019408,-31.689722 h 48.2517 L 90.056634,155.95578 H 52.527533 L 50.114948,121.37539 H 35.907503 l -1.876455,34.58039 z M 38.052023,81.165644 h 10.18647 l -2.68065,-59.242365 h -4.557105 z"
           style="fill:#0055d4"
           id="path67246" />
        <path
           d="M 100.77907,155.95578 V -31.689722 h 32.1678 l 22.78553,73.717876 h 4.02097 v -73.717876 h 34.84845 V 155.95578 h -32.1678 L 139.6485,82.237904 h -4.02098 v 73.717876 z"
           style="fill:#0055d4"
           id="path67248" />
        <path
           d="M 210.68567,155.95578 V -31.689722 h 46.91138 q 13.13518,0 23.58972,6.43356 10.7226,6.165495 16.88809,16.8880955 6.43356,10.4545351 6.43356,23.5897205 V 109.0444 q 0,13.13519 -6.43356,23.85779 -6.16549,10.45453 -16.88809,16.88809 -10.45454,6.1655 -23.58972,6.1655 z m 39.94169,-34.58039 h 7.50582 q 2.68065,0 4.28904,-1.87645 1.87645,-1.87646 1.87645,-4.28904 V 9.3242237 q 0,-2.412585 -1.87645,-4.28904 -1.60839,-1.8764551 -4.28904,-1.8764551 h -7.50582 z"
           style="fill:#0055d4"
           id="path67250" />
        <path
           d="m 363.21442,158.63643 q -12.86712,0 -23.58972,-6.1655 -10.7226,-6.43356 -17.15616,-16.88809 -6.1655,-10.7226 -6.1655,-23.85779 V 90.279854 h 39.94169 v 22.785526 q 0,2.68065 1.87645,5.09323 2.14452,2.14452 5.09324,2.14452 2.94871,0 5.09323,-2.14452 2.14452,-2.41258 2.14452,-5.09323 0,-2.41259 -0.53613,-4.02098 -0.53613,-1.87645 -2.41258,-4.82517 l -32.1678,-52.540736 q -3.48485,-5.89743 -8.04195,-12.33099 -4.55711,-6.701625 -7.77389,-13.135185 -3.21678,-6.701625 -3.21678,-12.599055 v -1.07226 q 0,-13.1351854 6.1655,-23.58972 6.43356,-10.722601 17.15616,-16.888096 10.7226,-6.43356 23.58972,-6.43356 13.13518,0 23.58972,6.43356 10.7226,6.165495 16.88809,16.888096 6.43356,10.4545346 6.43356,23.58972 V 31.573619 H 370.45217 V 10.932614 q 0,-2.9487153 -2.14452,-5.0932353 -2.14452,-2.1445201 -5.09323,-2.1445201 -2.68065,0 -4.82517,2.1445201 -2.14452,2.14452 -2.14452,5.0932353 0,1.876455 0.53613,3.21678 0.80419,1.07226 2.14452,3.484845 l 33.24006,52.808805 q 6.16549,9.918405 12.06292,19.83681 5.89743,9.650341 5.89743,20.372936 v 1.07226 q 0,13.13519 -6.43356,23.85779 -6.16549,10.45453 -16.88809,16.88809 -10.45454,6.1655 -23.58972,6.1655 z"
           style="fill:#0055d4"
           id="path67252" />
        <path
           d="m 526.73374,158.63643 q -12.86712,0 -23.58972,-6.1655 -10.7226,-6.43356 -17.15616,-16.88809 -6.1655,-10.7226 -6.1655,-23.85779 V -31.689722 h 39.94169 V 114.13764 q 0,2.94871 2.14452,5.09323 2.14452,2.14452 4.82517,2.14452 2.94871,0 5.09323,-2.14452 2.14452,-2.14452 2.14452,-5.09323 V -31.689722 h 39.67362 V 111.72505 q 0,13.13519 -6.43356,23.85779 -6.16549,10.45453 -16.88809,16.88809 -10.45454,6.1655 -23.58972,6.1655 z"
           style="fill:#ff2a2a"
           id="path67254" />
        <path
           d="M 589.72898,155.95578 V -31.689722 h 41.55007 q 14.47551,0 26.27037,6.96969 11.79486,6.96969 18.76455,18.7645506 7.23776,11.7948601 7.23776,26.2703704 v 32.1678 q 0,14.47551 -7.23776,26.27037 -6.96969,11.79486 -18.76455,18.76455 -11.79486,6.969691 -26.27037,6.969691 h -1.60839 v 51.46848 z m 39.94168,-86.316931 h 0.8042 q 3.48484,0 6.43356,-0.804195 2.94871,-0.804195 4.5571,-4.557105 1.87646,-3.75291 1.87646,-12.599055 V 21.387149 q 0,-9.11421 -1.87646,-12.8671203 -1.60839,-3.75291 -4.5571,-4.5571051 -2.94872,-0.804195 -6.43356,-0.804195 h -0.8042 z"
           style="fill:#ff2a2a"
           id="path67256" />
        <path
           d="m 707.67754,105.02343 -8.04195,-136.713152 h 40.20975 l -8.04195,136.713152 z"
           style="fill:#ff2a2a"
           id="path67258"
           sodipodi:nodetypes="ccccc" />
        <text
           xml:space="preserve"
           style="font-size:42.6667px;line-height:1.25;font-family:Arial;-inkscape-font-specification:Arial;writing-mode:tb-rl"
           x="42.102242"
           y="-133.00102"
           id="text2220"><tspan
             sodipodi:role="line"
             id="tspan2218"></tspan></text>
      </g>
      <text
         xml:space="preserve"
         style="font-size:42.6667px;line-height:1.25;font-family:Arial;-inkscape-font-specification:Arial;writing-mode:lr-tb;fill:#4d4d4d"
         x="-110.8204"
         y="215.62616"
         id="text45216"
         inkscape:export-filename="G:\My Drive\Roleplay\Hands Up\text1978.png"
         inkscape:export-xdpi="300.01099"
         inkscape:export-ydpi="300.01099"><tspan
           sodipodi:role="line"
           id="tspan45214"
           x="-110.8204"
           y="215.62616"
           style="font-style:normal;font-variant:normal;font-weight:bold;font-stretch:normal;font-family:Lato;-inkscape-font-specification:Lato" /></text>
      <text
         xml:space="preserve"
         style="font-size:42.6667px;line-height:1.25;font-family:Arial;-inkscape-font-specification:Arial;writing-mode:lr-tb;fill:#4d4d4d"
         x="758.75494"
         y="16.102383"
         id="text45216-0"
         inkscape:export-filename="G:\My Drive\Roleplay\Hands Up\text1978.png"
         inkscape:export-xdpi="300.01099"
         inkscape:export-ydpi="300.01099"><tspan
           sodipodi:role="line"
           id="tspan45214-4"
           x="758.75494"
           y="16.102383"
           style="font-style:normal;font-variant:normal;font-weight:bold;font-stretch:normal;font-family:Lato;-inkscape-font-specification:Lato">TM</tspan></text>
      <rect
         style="fill:#0055d4;fill-opacity:1;stroke-width:6.44016"
         id="rect76106"
         width="18.183016"
         height="17.861195"
         x="19.649969"
         y="-45.174446"
         inkscape:export-filename="G:\My Drive\Roleplay\Hands Up\text1978.png"
         inkscape:export-xdpi="300.01099"
         inkscape:export-ydpi="300.01099" />
      <rect
         style="fill:#ff2a2a;fill-opacity:1;stroke-width:8.09783"
         id="rect76108"
         width="18.504847"
         height="17.137093"
         x="50.757496"
         y="-44.836449"
         inkscape:export-filename="G:\My Drive\Roleplay\Hands Up\text1978.png"
         inkscape:export-xdpi="300.01099"
         inkscape:export-ydpi="300.01099" />
    </g>
  </g>
  <g
     inkscape:groupmode="layer"
     id="layer2"
     inkscape:label="Layer 2"
     style="display:inline">
    <g
       id="g828"
       transform="matrix(-0.06592937,0,0,-0.06592937,268.65574,143.24457)"
       style="fill:#0055d4;fill-opacity:1"
       inkscape:export-filename="G:\My Drive\Roleplay\Hands Up\HandsUpLogo.png"
       inkscape:export-xdpi="300.01099"
       inkscape:export-ydpi="300.01099">
      <path
         d="m 92.906,94.813 60.438,79.75 78.125,-79.75 H 92.905 Z m 189.25,0 77.094,78.687 58.688,-78.688 H 282.155 Z m -25.344,0.843 -84.718,86.47 H 341.53 l -84.717,-86.47 z m 177.907,7.906 -58.626,78.563 H 494.53 l -59.81,-78.563 z m -358.064,0.75 -57.78,77.813 h 116.78 z m -58.5,96.5 L 226.562,429.22 143.344,200.81 H 18.156 Z m 145.063,0 93.593,256.844 93.593,-256.844 H 163.22 Z m 207.06,0 L 287.064,429.22 495.469,200.81 H 370.28 Z"
         fill="#ffffff"
         fill-opacity="1"
         id="path826"
         style="fill:#0055d4;fill-opacity:1" />
    </g>
  </g>
</svg>
